{"title":"How To Train Your Dragon V2 READNFO TS XViD - IMAGiNE","uid":5479408,"size":756799600,"categoryP":"video","categoryS":"movies","magnet":"?xt=urn:btih:371b24eb9a08f2d5f1674ff318186a3bd4a9861c&amp;dn=How+To+Train+Your+Dragon+V2+READNFO+TS+XViD+-+IMAGiNE&amp;tr=udp%3A%2F%2Ftracker.openbittorrent.com%3A80&amp;tr=udp%3A%2F%2Fopen.demonii.com%3A1337&amp;tr=udp%3A%2F%2Ftracker.coppersurfer.tk%3A6969&amp;tr=udp%3A%2F%2Fexodus.desync.com%3A6969","seeders":1,"leechers":0,"uploader":"IwannaFan2","files":3,"time":1270324327,"description":"Filename:\nHow To Train Your Dragon V2 READNFO TS XViD - IMAGiNE\n &lt;a href=&quot;\nhttp://www.imdb.com/title/tt0892769/&quot; rel=&quot;nofollow&quot; target=&quot;_NEW&quot;&gt;\nhttp://www.imdb.com/title/tt0892769/&lt;/a&gt;\n\nDETAILS:\n\nVideo\nID                               : 0\nFormat                           : MPEG-4 Visual\nFormat profile                   : Advanced Simple@L5\nFormat settings, BVOP            : Yes\nFormat settings, QPel            : No\nFormat settings, GMC             : No warppoints\nFormat settings, Matrix          : Default (MPEG)\nMuxing mode                      : Packed bitstream\nCodec ID                         : XVID\nCodec ID/Hint                    : XviD\nDuration                         : 1h 25mn\nBit rate                         : 1 019 Kbps\nWidth                            : 640 pixels\nHeight                           : 272 pixels\nDisplay aspect ratio             : 2.35\nFrame rate                       : 25.000 fps\nResolution                       : 24 bits\nColorimetry                      : 4:2:0\nScan type                        : Progressive\nBits/(Pixel*Frame)               : 0.234\nStream size                      : 627 MiB (88%)\nWriting library                  : XviD 1.2.1 (UTC 2008-12-04)\n\nAudio\nID                               : 1\nFormat                           : MPEG Audio\nFormat version                   : Version 1\nFormat profile                   : Layer 3\nCodec ID                         : 55\nCodec ID/Hint                    : MP3\nDuration                         : 1h 25mn\nBit rate mode                    : Constant\nBit rate                         : 128 Kbps\nChannel(s)                       : 2 channels\nSampling rate                    : 44.1 KHz\nResolution                       : 16 bits\nStream size                      : 78.7 MiB (11%)\nAlignment                        : Split accross interleaves\nInterleave, duration             : 40 ms (1.00 video frame)\nInterleave, preload duration     : 500 ms\n\n\nNOTES:\n\nIMAGiNE bringing you another release.....How To Train Your Dragon\nThis time we've used the german internal by CiNEJUNKiEZ (thanks) and muxed our\nown line audio to it.\nVideo was really nice ,but we've opted to tweak it still as it was too dark and also changed the\nrgb colours slightly aswell as a few other things.\nAudio was a pain to sync but got there in the end.\n","torrent":{"xt":"urn:btih:371b24eb9a08f2d5f1674ff318186a3bd4a9861c","amp;dn":"How+To+Train+Your+Dragon+V2+READNFO+TS+XViD+-+IMAGiNE","amp;tr":["udp%3A%2F%2Ftracker.openbittorrent.com%3A80","udp%3A%2F%2Fopen.demonii.com%3A1337","udp%3A%2F%2Ftracker.coppersurfer.tk%3A6969","udp%3A%2F%2Fexodus.desync.com%3A6969"],"infoHash":"371b24eb9a08f2d5f1674ff318186a3bd4a9861c","infoHashBuffer":{"type":"Buffer","data":[55,27,36,235,154,8,242,213,241,103,79,243,24,24,106,59,212,169,134,28]},"announce":[],"urlList":[]}}